<svg xmlns="http://www.w3.org/2000/svg" width="38" height="47" viewBox="0 0 38 47">
  <path id="icons8-trancar" d="M25,3A11.988,11.988,0,0,0,13,15v5H9a3.016,3.016,0,0,0-3,3V47a3.016,3.016,0,0,0,3,3H41a3.016,3.016,0,0,0,3-3V23a3.016,3.016,0,0,0-3-3H37V15A11.988,11.988,0,0,0,25,3Zm0,2A9.945,9.945,0,0,1,35,15v5H15V15A9.945,9.945,0,0,1,25,5ZM9,22H41a1,1,0,0,1,1,1V47a1,1,0,0,1-1,1H9a1,1,0,0,1-1-1V23A1,1,0,0,1,9,22Zm16,8a2.947,2.947,0,0,0-3,3,2.836,2.836,0,0,0,1,2.188V38a2,2,0,0,0,4,0V35.188A2.836,2.836,0,0,0,28,33,2.947,2.947,0,0,0,25,30Z" transform="translate(-6 -3)" fill="#d71a22"/>
</svg>
