<svg xmlns="http://www.w3.org/2000/svg" width="45.996" height="46" viewBox="0 0 45.996 46">
  <path id="icons8-configurações" d="M22.205,2a1,1,0,0,0-.986.838l-.973,5.955a16.771,16.771,0,0,0-3.336,1.371L12,6.654a1,1,0,0,0-1.287.105L6.818,10.646a1,1,0,0,0-.111,1.281l3.457,4.945a16.919,16.919,0,0,0-1.4,3.359l-5.93.986A1,1,0,0,0,2,22.205v5.5a1,1,0,0,0,.824.986L8.76,29.742A16.821,16.821,0,0,0,10.154,33.1L6.654,38a1,1,0,0,0,.105,1.287l3.889,3.891a1,1,0,0,0,1.279.113l4.955-3.469A16.852,16.852,0,0,0,20.229,41.2l.99,5.963a1,1,0,0,0,.986.836h5.5a1,1,0,0,0,.986-.826l1.061-5.986a16.849,16.849,0,0,0,3.33-1.4l4.988,3.5a1,1,0,0,0,1.281-.111l3.889-3.893a1,1,0,0,0,.1-1.291l-3.557-4.937a16.766,16.766,0,0,0,1.367-3.311l6.018-1.055A1,1,0,0,0,48,27.707v-5.5a1,1,0,0,0-.838-.986l-6.008-.982a16.882,16.882,0,0,0-1.371-3.307l3.508-5a1,1,0,0,0-.111-1.281L39.287,6.764A1,1,0,0,0,38,6.66L33.072,10.2a16.76,16.76,0,0,0-3.334-1.389L28.691,2.828A1,1,0,0,0,27.705,2Zm.852,2h3.809l1,5.686a1,1,0,0,0,.742.8,14.8,14.8,0,0,1,4.09,1.7,1,1,0,0,0,1.1-.043l4.68-3.363,2.693,2.693-3.332,4.748a1,1,0,0,0-.039,1.09,14.927,14.927,0,0,1,1.686,4.07,1,1,0,0,0,.809.744L46,23.059v3.809l-5.719,1a1,1,0,0,0-.8.746A14.8,14.8,0,0,1,37.8,32.686a1,1,0,0,0,.045,1.1l3.379,4.689-2.693,2.7-4.74-3.326a1,1,0,0,0-1.094-.035,14.9,14.9,0,0,1-4.08,1.709,1,1,0,0,0-.74.795L26.867,46H23.053l-.941-5.662a1,1,0,0,0-.746-.807,14.9,14.9,0,0,1-4.105-1.7,1,1,0,0,0-1.088.039l-4.7,3.295-2.7-2.7L12.1,33.824a1,1,0,0,0,.041-1.1,14.86,14.86,0,0,1-1.711-4.115,1,1,0,0,0-.795-.742L4,26.867V23.053l5.627-.935a1,1,0,0,0,.807-.744,14.953,14.953,0,0,1,1.711-4.117,1,1,0,0,0-.035-1.092l-3.285-4.7,2.7-2.7,4.662,3.332a1,1,0,0,0,1.1.043,14.83,14.83,0,0,1,4.1-1.686,1,1,0,0,0,.748-.811ZM25,17a8,8,0,1,0,8,8A8.015,8.015,0,0,0,25,17Zm0,2a6,6,0,1,1-6,6A5.985,5.985,0,0,1,25,19Z" transform="translate(-2.002 -2)" fill="#d71a22"/>
</svg>
