<svg xmlns="http://www.w3.org/2000/svg" width="60.934" height="40.216" viewBox="0 0 60.934 40.216">
  <path id="icons8-upload-para-a-nuvem" d="M24.374,8A14.546,14.546,0,0,0,9.864,22.015,13.308,13.308,0,0,0,0,34.811,13.45,13.45,0,0,0,13.405,48.216h36.56A11.008,11.008,0,0,0,60.934,37.248a10.842,10.842,0,0,0-7.426-10.206A13.386,13.386,0,0,0,40.216,14.093a13.12,13.12,0,0,0-3.618.647A14.679,14.679,0,0,0,24.374,8Zm0,2.437A12.328,12.328,0,0,1,35,16.645l.533.876.952-.343a10.6,10.6,0,0,1,3.732-.647A11,11,0,0,1,51.184,27.5v1.333l.952.229a8.5,8.5,0,0,1-2.171,16.719H13.405A10.966,10.966,0,0,1,11.2,24.071l.99-.19V22.624A12.119,12.119,0,0,1,24.374,10.437ZM30.467,20.91l-.876.838L22.279,29.06l1.752,1.752,5.217-5.218V39.686h2.437V25.595L36.9,30.812l1.752-1.752-7.312-7.312Z" transform="translate(0 -8)" fill="#d71a22"/>
</svg>
