<svg xmlns="http://www.w3.org/2000/svg" width="47" height="47" viewBox="0 0 47 47">
  <path id="developer_board_search_regular_icon_202930" d="M19.278,21.889a7.833,7.833,0,1,1,7.833,7.833A7.833,7.833,0,0,1,19.278,21.889Zm7.833-5.222a5.222,5.222,0,1,0,5.222,5.222A5.222,5.222,0,0,0,27.111,16.667ZM21.889,2.306a1.306,1.306,0,1,0-2.611,0V6.222H17.972a6.528,6.528,0,0,0-6.528,6.528v1.306H7.528a1.306,1.306,0,1,0,0,2.611h3.917v3.917H7.528A1.306,1.306,0,0,0,6.376,22.5a11.809,11.809,0,0,1,7.679.053V12.75a3.917,3.917,0,0,1,3.917-3.917H36.25a3.917,3.917,0,0,1,3.917,3.917V31.028a3.917,3.917,0,0,1-3.917,3.917H21.817a11.682,11.682,0,0,1-.6,2.611h4.585v3.917a1.306,1.306,0,1,0,2.611,0V37.556h3.917v3.917a1.306,1.306,0,1,0,2.611,0V37.556H36.25a6.528,6.528,0,0,0,6.528-6.528V29.722h3.917a1.306,1.306,0,1,0,0-2.611H42.778V23.194h3.917a1.306,1.306,0,1,0,0-2.611H42.778V16.667h3.917a1.306,1.306,0,1,0,0-2.611H42.778V12.75A6.528,6.528,0,0,0,36.25,6.222H34.944V2.306a1.306,1.306,0,1,0-2.611,0V6.222H28.417V2.306a1.306,1.306,0,1,0-2.611,0V6.222H21.889ZM10.139,42.778a9.1,9.1,0,0,0,5.473-1.819l6.659,6.659a1.306,1.306,0,0,0,1.846-1.846l-6.659-6.659a9.139,9.139,0,1,0-7.32,3.666Zm0-2.611a6.528,6.528,0,1,1,6.528-6.528A6.528,6.528,0,0,1,10.139,40.167Z" transform="translate(-1 -1)" fill="#d71a22"/>
</svg>
