<svg xmlns="http://www.w3.org/2000/svg" width="46" height="46" viewBox="0 0 46 46">
  <g id="phone_desktop_add_regular_icon_202795" transform="translate(-2 -1)">
    <path id="Path_27" data-name="Path 27" d="M34.353,13.176A12.176,12.176,0,1,1,22.176,1,12.176,12.176,0,0,1,34.353,13.176ZM23.529,7.765a1.353,1.353,0,1,0-2.706,0v4.059H16.765a1.353,1.353,0,1,0,0,2.706h4.059v4.059a1.353,1.353,0,1,0,2.706,0V14.529h4.059a1.353,1.353,0,1,0,0-2.706H23.529Z" transform="translate(13.647)" fill="#d71a22"/>
    <path id="Path_28" data-name="Path 28" d="M30.647,13.145V11.522a14.9,14.9,0,0,0,2.706-1.779v3.4a5.412,5.412,0,0,1-5.412,5.412H19.824v5.412h4.059a1.353,1.353,0,0,1,0,2.706H9V23.968h8.118V18.556H9V15.85H27.941A2.706,2.706,0,0,0,30.647,13.145Z" transform="translate(11.941 14.914)" fill="#d71a22"/>
    <path id="Path_29" data-name="Path 29" d="M20.931,2a14.894,14.894,0,0,0-1.779,2.706H9.412A2.706,2.706,0,0,0,6.706,7.412v8.118H4V7.412A5.412,5.412,0,0,1,9.412,2Z" transform="translate(3.412 1.706)" fill="#d71a22"/>
    <path id="Path_30" data-name="Path 30" d="M4,16.353A1.353,1.353,0,0,1,5.353,15H8.059a1.353,1.353,0,0,1,0,2.706H5.353A1.353,1.353,0,0,1,4,16.353Z" transform="translate(3.412 23.882)" fill="#d71a22"/>
    <path id="Path_31" data-name="Path 31" d="M2,12.059A4.059,4.059,0,0,1,6.059,8h8.118a4.059,4.059,0,0,1,4.059,4.059V31a4.059,4.059,0,0,1-4.059,4.059H6.059A4.059,4.059,0,0,1,2,31Zm4.059-1.353a1.353,1.353,0,0,0-1.353,1.353V31a1.353,1.353,0,0,0,1.353,1.353h8.118A1.353,1.353,0,0,0,15.529,31V12.059a1.353,1.353,0,0,0-1.353-1.353Z" transform="translate(0 11.941)" fill="#d71a22"/>
  </g>
</svg>
