<svg xmlns="http://www.w3.org/2000/svg" width="46" height="46" viewBox="0 0 46 46">
  <g id="group_regular_icon_202869" transform="translate(-3 -3)">
    <path id="Path_32" data-name="Path 32" d="M13.857,5.643a8.253,8.253,0,0,1-.164,1.643H23.714A3.286,3.286,0,0,1,27,10.571v6.571H23.714a6.571,6.571,0,0,0-6.571,6.571V27H10.571a3.286,3.286,0,0,1-3.286-3.286V13.693a8.295,8.295,0,0,1-3.286,0V23.714a6.571,6.571,0,0,0,6.571,6.571h6.571v6.571a6.571,6.571,0,0,0,6.571,6.571H33.736a8.3,8.3,0,0,1,0-3.286H23.714a3.286,3.286,0,0,1-3.286-3.286V30.286h3.286a6.571,6.571,0,0,0,6.571-6.571V20.429h6.571a3.286,3.286,0,0,1,3.286,3.286V33.736a8.3,8.3,0,0,1,3.286,0V23.714a6.571,6.571,0,0,0-6.571-6.571H30.286V10.571A6.571,6.571,0,0,0,23.714,4H13.693A8.253,8.253,0,0,1,13.857,5.643ZM27,20.429v3.286A3.286,3.286,0,0,1,23.714,27H20.429V23.714a3.286,3.286,0,0,1,3.286-3.286Z" transform="translate(2.286 2.286)" fill="#d71a22"/>
    <path id="Path_33" data-name="Path 33" d="M12.857,7.929A4.929,4.929,0,1,1,7.929,3,4.929,4.929,0,0,1,12.857,7.929Z" fill="#d71a22"/>
    <path id="Path_34" data-name="Path 34" d="M23.857,18.929A4.929,4.929,0,1,1,18.929,14,4.929,4.929,0,0,1,23.857,18.929Z" transform="translate(25.143 25.143)" fill="#d71a22"/>
    <path id="Path_35" data-name="Path 35" d="M23.857,7.929A4.929,4.929,0,1,1,18.929,3,4.929,4.929,0,0,1,23.857,7.929Z" transform="translate(25.143)" fill="#d71a22"/>
    <path id="Path_36" data-name="Path 36" d="M12.857,18.929A4.929,4.929,0,1,1,7.929,14,4.929,4.929,0,0,1,12.857,18.929Z" transform="translate(0 25.143)" fill="#d71a22"/>
  </g>
</svg>
