<svg xmlns="http://www.w3.org/2000/svg" xmlns:xlink="http://www.w3.org/1999/xlink" width="1920" height="1729" viewBox="0 0 1920 1729">
  <defs>
    <clipPath id="clip-path">
      <rect id="shape" width="1920" height="1729" transform="translate(0 5509.716)" fill="#f5f5f5"/>
    </clipPath>
    <clipPath id="clip-path-2">
      <rect id="Retângulo_7" data-name="Retângulo 7" width="2473.262" height="1936.898" fill="none"/>
    </clipPath>
    <clipPath id="clip-path-3">
      <path id="Caminho_16" data-name="Caminho 16" d="M1533.784,1224.434l-.007.089-5.317,10.137c-33.148-8.249-65.876-22.054-98.195-37.524q51.378,15.6,103.519,27.3M501.725,305.776C601.733,519.1,693.194,674.2,826.35,810.844c125.9,135.308,285.818,244.721,481.207,326.624,40.251,17.123,81.141,39.771,122.708,59.668a1496.534,1496.534,0,0,1-258.387-105.683c-197.846-102.082-361.8-243.763-487.633-387.8C570.657,565.642,494.759,300.692,499.17,300.663c.347,0,1.191,1.639,2.556,5.113" transform="translate(-498.987 -300.663)" fill="none"/>
    </clipPath>
    <linearGradient id="linear-gradient" x1="-0.554" y1="-0.205" x2="-0.553" y2="-0.205" gradientUnits="objectBoundingBox">
      <stop offset="0" stop-color="#e9292f"/>
      <stop offset="0.566" stop-color="#d8252e"/>
      <stop offset="1" stop-color="#d2242e"/>
    </linearGradient>
    <clipPath id="clip-path-4">
      <rect id="Retângulo_6" data-name="Retângulo 6" width="2473.268" height="1936.9" fill="none"/>
    </clipPath>
    <clipPath id="clip-path-5">
      <rect id="Retângulo_2" data-name="Retângulo 2" width="1922.402" height="1059.929" fill="none"/>
    </clipPath>
    <clipPath id="clip-path-6">
      <rect id="Retângulo_5" data-name="Retângulo 5" width="1839.456" height="873.72" fill="none"/>
    </clipPath>
    <clipPath id="clip-path-8">
      <path id="Caminho_23" data-name="Caminho 23" d="M1901.977,1356.911c-368.85-43.218-783.159-157.091-1183.812-380.679-229.4-126.215-454.28-288.756-655.414-476.265L81.1,483.191C206.213,597.834,339.86,702.218,477.98,792.865c368.417,244.494,731.045,391.572,1087.4,445.822a2224.016,2224.016,0,0,0,283.406,32.066s57.536,85.411,53.189,86.159" transform="translate(-62.751 -483.191)" fill="none"/>
    </clipPath>
    <linearGradient id="linear-gradient-2" x1="-0.055" y1="-0.184" x2="-0.054" y2="-0.184" gradientUnits="objectBoundingBox">
      <stop offset="0" stop-color="#e8262f"/>
      <stop offset="0.018" stop-color="#e8262f"/>
      <stop offset="0.325" stop-color="#e8262f"/>
      <stop offset="0.407" stop-color="#e82c37"/>
      <stop offset="0.54" stop-color="#eb3c4f"/>
      <stop offset="0.583" stop-color="#ec4359"/>
      <stop offset="1" stop-color="#dae0df"/>
    </linearGradient>
  </defs>
  <g id="Grupo_de_máscara_2" data-name="Grupo de máscara 2" transform="translate(0 -5509.716)" clip-path="url(#clip-path)">
    <g id="divisor" transform="translate(2856.696 4671.316) rotate(79)">
      <g id="Grupo_32" data-name="Grupo 32" clip-path="url(#clip-path-2)">
        <g id="Grupo_18" data-name="Grupo 18" transform="translate(530.847 546.883)">
          <g id="Grupo_17" data-name="Grupo 17" clip-path="url(#clip-path-3)">
            <rect id="Retângulo_1" data-name="Retângulo 1" width="1353.929" height="1309.688" transform="matrix(-0.886, -0.464, 0.464, -0.886, 810.732, 1361.319)" fill="url(#linear-gradient)"/>
          </g>
        </g>
        <g id="Grupo_31" data-name="Grupo 31" transform="translate(-0.006 -0.002)">
          <g id="Grupo_30" data-name="Grupo 30" clip-path="url(#clip-path-4)">
            <g id="Grupo_21" data-name="Grupo 21" transform="translate(486.149 713.101)" opacity="0.57">
              <g id="Grupo_20" data-name="Grupo 20">
                <g id="Grupo_19" data-name="Grupo 19" clip-path="url(#clip-path-5)">
                  <path id="Caminho_17" data-name="Caminho 17" d="M56.885,392.044C107.7,449.675,161.02,507.586,217.749,566.335c221.75,224.068,508.673,455.68,824.023,609.332,220.672,109.663,455.571,180.273,662.574,193.011l-7.485,5.7c-88.411-5.268-181.088-20.6-275.216-45.844-338.767-86.423-696.9-299.669-978.359-531.842C290.307,669.066,157.193,539.126,35.58,408.3Z" transform="translate(218.056 -392.046)" fill="#efeded"/>
                  <path id="Caminho_18" data-name="Caminho 18" d="M145.746,439.273C373.361,640.966,618.717,837.5,895.923,1006.268c151.975,91.579,296.581,163.686,441.442,221.5,78.4,31.637,156.907,58.606,234.656,79.691,100.288,27.915,199.174,45.9,293.478,53.272l1.441-1.1a.107.107,0,0,0,.023,0l-40.953,31.255a.119.119,0,0,0-.036,0l.262-.2c-100.612-8.986-206.65-29.421-315.9-61.283q-49.111-13.549-98.238-29.536c-136.479-45.5-272.84-108.755-408.737-173.465-398-189.526-826.457-494.729-946.44-619.345Z" transform="translate(16.622 -353.369)" fill="#dae0df"/>
                  <path id="Caminho_19" data-name="Caminho 19" d="M132.831,406.339q37.75,40.345,77.328,80.68C395.365,675.98,614.6,866.132,864.4,1023.789c248.361,157.029,526.98,279.94,782.89,325.254,51.943,9.52,126.808,38.665,126.808,38.665-94.308-7.374-193.193-25.359-293.483-53.276-77.748-21.081-156.249-48.052-234.658-79.694-198.13-79.947-397.207-189.9-589.684-317.544C436.87,785.206,243.285,626.832,57.724,463.662Z" transform="translate(108.023 -380.339)" fill="#efeded"/>
                  <path id="Caminho_20" data-name="Caminho 20" d="M386.792,616.657C729.328,869.573,1125.81,1114.5,1524.31,1244.072c119.954,39.991,238.6,69.146,352.007,83.934,20.825,2.9,32.53,29.49,32.53,29.49-182.333-18.753-380.488-72.411-577.175-148.757C1069.188,1106.272,809.206,964.695,562.833,812.4c-159.258-98.311-313.04-201.1-467.249-304.982,0,0,217.767,55.015,291.208,109.243" transform="translate(-95.588 -297.567)" fill="#f2d1cd"/>
                  <path id="Caminho_21" data-name="Caminho 21" d="M79.312,912.409q49.114,15.964,98.236,29.537c109.25,31.862,215.288,52.3,315.9,61.283l-.262.2c-20.425-1.881-41.042-4.182-61.869-7.081-113.406-14.8-232.047-43.942-352-83.936" transform="translate(1349.41 34.093)" fill="#d4bbb7"/>
                </g>
              </g>
            </g>
            <path id="Caminho_22" data-name="Caminho 22" d="M2202.612,1456.054c-311.36-34.807-581.8-72.555-932.875-198.343C924.4,1121.1,559.287,922.282,229.595,603.187,40.36,422.231-65.527,241.116,44.636,364.226,337.8,695.232,650.417,930.611,980.841,1074.663c338.392,157.8,707.048,264.91,1151,290.6Z" transform="translate(270.656 265.214)" fill="#e8262f"/>
            <g id="Grupo_29" data-name="Grupo 29" transform="translate(519.672 878.889)" style="mix-blend-mode: multiply;isolation: isolate">
              <g id="Grupo_28" data-name="Grupo 28">
                <g id="Grupo_27" data-name="Grupo 27" clip-path="url(#clip-path-6)">
                  <g id="Grupo_26" data-name="Grupo 26" style="mix-blend-mode: multiply;isolation: isolate">
                    <g id="Grupo_25" data-name="Grupo 25">
                      <g id="Grupo_24" data-name="Grupo 24" clip-path="url(#clip-path-6)">
                        <g id="Grupo_23" data-name="Grupo 23" transform="translate(-0.004 0)">
                          <g id="Grupo_22" data-name="Grupo 22" clip-path="url(#clip-path-8)">
                            <rect id="Retângulo_3" data-name="Retângulo 3" width="1859.925" height="908.773" transform="matrix(-1, -0.019, 0.019, -1, 1842.901, 908.926)" fill="url(#linear-gradient-2)"/>
                          </g>
                        </g>
                      </g>
                    </g>
                  </g>
                </g>
              </g>
            </g>
          </g>
        </g>
      </g>
    </g>
  </g>
</svg>
